PathFileType	4	(X/Y/Z)	/tmp/tmpw5mnwk_y/Me_1/MarkerData/random_segment_0.trc
DataRate	CameraRate	NumFrames	NumMarkers	Units	OrigDataRate	OrigDataStartFrame	OrigNumFrames
100.089	100.089	9	38	m	100.089	985	1126
Frame#	Time	C7			CLAV			LANK			LASI			LBHD			LELB			LFHD			LFIN			LFRM			LHEE			LKNE			LPSI			LSHO			LTHI			LTIB			LTOE			LUPA			LWRA			LWRB			RANK			RBAK			RBHD			RELB			RFHD			RFIN			RFRM			RHEE			RKNE			RPSI			RSHO			RTHI			RTIB			RTOE			RUPA			RWRA			RWRB			STRN			T10		
		X1	Y1	Z1	X2	Y2	Z2	X3	Y3	Z3	X4	Y4	Z4	X5	Y5	Z5	X6	Y6	Z6	X7	Y7	Z7	X8	Y8	Z8	X9	Y9	Z9	X10	Y10	Z10	X11	Y11	Z11	X12	Y12	Z12	X13	Y13	Z13	X14	Y14	Z14	X15	Y15	Z15	X16	Y16	Z16	X17	Y17	Z17	X18	Y18	Z18	X19	Y19	Z19	X20	Y20	Z20	X21	Y21	Z21	X22	Y22	Z22	X23	Y23	Z23	X24	Y24	Z24	X25	Y25	Z25	X26	Y26	Z26	X27	Y27	Z27	X28	Y28	Z28	X29	Y29	Z29	X30	Y30	Z30	X31	Y31	Z31	X32	Y32	Z32	X33	Y33	Z33	X34	Y34	Z34	X35	Y35	Z35	X36	Y36	Z36	X37	Y37	Z37	X38	Y38	Z38

986	9.84125	-0.131668	1.45678	0.12873	-0.272592	1.38619	0.226644	-0.108766	0.0932341	0.263877	-0.178816	0.992048	0.321376	-0.146255	1.59081	0.272651	-0.177511	1.11184	0.437289	-0.245333	1.62796	0.350782	-0.411561	1.28336	0.295099	-0.30898	1.13577	0.36007	-0.0650043	0.0624549	0.185392	-0.166238	0.477029	0.305136	-0.112549	1.00778	0.143412	-0.0883601	1.42716	0.312838	-0.163016	0.663527	0.332574	-0.111043	0.240892	0.295083	-0.290902	0.0624708	0.2731	-0.104863	1.26729	0.411041	-0.325098	1.22245	0.288985	-0.375654	1.19	0.327418	-0.170919	0.139788	-0.128229	-0.178798	1.33379	-0.002972	-0.24028	1.6205	0.161239	-0.520172	1.22151	-0.0465775	-0.324066	1.64549	0.25031	-0.847713	1.14674	-0.0405088	-0.601876	1.18162	-0.0448572	-0.10654	0.107809	-0.0480797	-0.331779	0.516589	-0.0558696	-0.144563	1.00432	0.0869254	-0.300409	1.46085	0.051627	-0.350356	0.839808	0.00300474	-0.254227	0.41544	-0.104958	-0.31852	0.0623922	-0.138056	-0.454127	1.2934	-0.0307952	-0.762262	1.17647	0.0317189	-0.757267	1.12889	-0.0247461	-0.315399	1.23186	0.249091	-0.111471	1.22648	0.094684
987	9.85124	-0.131251	1.45691	0.131295	-0.273112	1.38634	0.22773	-0.108704	0.0931964	0.263997	-0.179945	0.991941	0.322837	-0.145826	1.59114	0.273304	-0.18048	1.11166	0.438679	-0.243993	1.62786	0.352791	-0.413349	1.28257	0.293883	-0.311111	1.13529	0.360004	-0.06495	0.0624605	0.185368	-0.166858	0.47696	0.305613	-0.112464	1.008	0.145057	-0.0898697	1.4272	0.315825	-0.163895	0.663334	0.333344	-0.111416	0.240729	0.295513	-0.290906	0.0624487	0.273083	-0.107509	1.26719	0.413707	-0.326123	1.22245	0.289277	-0.377538	1.18935	0.326663	-0.171974	0.141211	-0.129183	-0.176267	1.33397	-0.000825476	-0.241683	1.62037	0.163263	-0.513764	1.2193	-0.052995	-0.324305	1.64502	0.253534	-0.840352	1.14081	-0.0552745	-0.594925	1.17828	-0.0537215	-0.106321	0.109109	-0.0496956	-0.334205	0.517286	-0.0563212	-0.144073	1.00462	0.0883207	-0.298963	1.46114	0.0521409	-0.349829	0.840686	0.00257796	-0.256782	0.416193	-0.10574	-0.319571	0.0627801	-0.136888	-0.449144	1.29187	-0.0348708	-0.756833	1.17058	0.0191494	-0.750143	1.12342	-0.0375579	-0.316235	1.23196	0.249265	-0.110438	1.22652	0.0979562
988	9.86123	-0.130959	1.45706	0.133562	-0.273619	1.38647	0.228822	-0.108649	0.0931688	0.264116	-0.181035	0.991651	0.323499	-0.145281	1.5915	0.273622	-0.18328	1.11151	0.439919	-0.242218	1.62781	0.354897	-0.41495	1.28194	0.292688	-0.313104	1.13489	0.359904	-0.0649905	0.0623991	0.185515	-0.167441	0.476929	0.305993	-0.112439	1.00818	0.146517	-0.0913266	1.42729	0.318488	-0.164906	0.663154	0.333707	-0.111793	0.240593	0.295908	-0.29091	0.0624289	0.27307	-0.109984	1.26712	0.416024	-0.327204	1.22236	0.289355	-0.379279	1.18883	0.325936	-0.173103	0.142583	-0.130298	-0.174074	1.33419	0.00123814	-0.243449	1.62019	0.165323	-0.50704	1.21673	-0.0592479	-0.324544	1.64452	0.257186	-0.832243	1.13371	-0.0699269	-0.587521	1.17449	-0.0623481	-0.105945	0.110263	-0.0518347	-0.336442	0.517946	-0.0567511	-0.143611	1.00486	0.089521	-0.297887	1.46141	0.0527317	-0.349411	0.841488	0.00211686	-0.259258	0.416899	-0.106565	-0.320569	0.0631604	-0.135634	-0.444111	1.2901	-0.0388836	-0.750909	1.16389	0.00672279	-0.74228	1.11722	-0.0502974	-0.317041	1.232	0.249505	-0.109714	1.22656	0.100945
989	9.87123	-0.130839	1.45721	0.13554	-0.274138	1.38655	0.229896	-0.1086	0.0931416	0.264239	-0.181986	0.991442	0.324103	-0.144767	1.5919	0.27351	-0.185922	1.11141	0.441005	-0.239947	1.6278	0.357028	-0.416395	1.28144	0.291514	-0.314943	1.13457	0.359749	-0.0649931	0.0623902	0.185605	-0.167947	0.476909	0.306256	-0.112432	1.00833	0.147778	-0.0926863	1.4274	0.320813	-0.165969	0.662948	0.333936	-0.112122	0.240526	0.296246	-0.290917	0.06241	0.27307	-0.112289	1.26707	0.417988	-0.328514	1.222	0.289081	-0.380908	1.18842	0.325213	-0.174316	0.143821	-0.131738	-0.172224	1.33445	0.00315623	-0.245657	1.61996	0.167445	-0.500052	1.21381	-0.0653552	-0.324736	1.64397	0.261302	-0.823372	1.12546	-0.0844367	-0.57966	1.17025	-0.0706834	-0.105249	0.111436	-0.0547716	-0.338482	0.518537	-0.0571691	-0.143198	1.00503	0.0905586	-0.297066	1.46172	0.0532756	-0.349061	0.842204	0.00156531	-0.261522	0.417579	-0.107404	-0.321576	0.0637011	-0.133925	-0.43898	1.28808	-0.0428376	-0.744419	1.15643	-0.00557908	-0.733717	1.11047	-0.0627966	-0.317756	1.232	0.249837	-0.109019	1.22664	0.103604
990	9.88122	-0.130943	1.4574	0.13727	-0.274763	1.38661	0.230876	-0.108565	0.0931179	0.264359	-0.18278	0.991358	0.324752	-0.144312	1.59235	0.272867	-0.188275	1.11132	0.441857	-0.237124	1.62776	0.359042	-0.417718	1.28105	0.29037	-0.31665	1.13433	0.359532	-0.0649731	0.0624345	0.185768	-0.168358	0.476885	0.306444	-0.112461	1.00846	0.148779	-0.0939488	1.42753	0.322812	-0.16677	0.662822	0.334271	-0.112387	0.240511	0.296532	-0.290932	0.0623999	0.273073	-0.114369	1.26715	0.419873	-0.329945	1.22152	0.288578	-0.382372	1.18808	0.324467	-0.175527	0.144736	-0.133567	-0.170721	1.33473	0.00500947	-0.248355	1.61968	0.169668	-0.492777	1.21062	-0.0713103	-0.324876	1.64334	0.265858	-0.813679	1.11606	-0.0986589	-0.571359	1.16561	-0.0787761	-0.104088	0.112755	-0.0585873	-0.340207	0.51902	-0.0574702	-0.142937	1.00516	0.0913792	-0.2965	1.46208	0.0537745	-0.348839	0.842819	0.00100887	-0.263546	0.418279	-0.108259	-0.322817	0.0648265	-0.131393	-0.433749	1.28584	-0.046743	-0.737301	1.14819	-0.0177358	-0.72434	1.10298	-0.0750906	-0.318392	1.23198	0.250285	-0.108589	1.22674	0.105891
991	9.89121	-0.131378	1.45771	0.138811	-0.275425	1.38669	0.23175	-0.108537	0.093113	0.264471	-0.183443	0.991293	0.325221	-0.14358	1.59284	0.271725	-0.190357	1.11129	0.442486	-0.233767	1.62767	0.360974	-0.418925	1.28079	0.289278	-0.318213	1.1342	0.359288	-0.0649395	0.0624787	0.185824	-0.168792	0.476863	0.306672	-0.112526	1.00852	0.149474	-0.0951159	1.42766	0.324454	-0.167315	0.662793	0.334576	-0.11258	0.240528	0.296746	-0.290946	0.0623897	0.273076	-0.116238	1.26728	0.421494	-0.331591	1.22083	0.287715	-0.383692	1.18785	0.3237	-0.176818	0.145343	-0.135738	-0.169586	1.33499	0.00669022	-0.251534	1.61931	0.172084	-0.485199	1.20718	-0.0770758	-0.32495	1.64259	0.270846	-0.803102	1.10556	-0.112597	-0.562623	1.16075	-0.0868104	-0.102611	0.114146	-0.0630671	-0.341631	0.519412	-0.057635	-0.142845	1.00524	0.092004	-0.296199	1.46244	0.054279	-0.348797	0.84334	0.000513765	-0.265399	0.41899	-0.10918	-0.324181	0.0662549	-0.128066	-0.428403	1.28343	-0.0505912	-0.72948	1.13917	-0.0297278	-0.714116	1.09465	-0.0871782	-0.318974	1.2319	0.250828	-0.108451	1.2269	0.107795
992	9.9012	-0.132029	1.45811	0.140071	-0.275859	1.38663	0.232344	-0.108501	0.0931184	0.264568	-0.184005	0.991199	0.325412	-0.14296	1.59336	0.270146	-0.192176	1.11132	0.442866	-0.229832	1.62755	0.362858	-0.420031	1.28061	0.288261	-0.319614	1.13416	0.359012	-0.064888	0.0625063	0.185765	-0.169102	0.47687	0.306787	-0.112611	1.00851	0.149883	-0.0961753	1.4278	0.325698	-0.167785	0.66278	0.334703	-0.112726	0.240555	0.296898	-0.290962	0.0623761	0.273073	-0.117883	1.26741	0.422759	-0.333316	1.22008	0.286647	-0.384986	1.18782	0.32319	-0.178334	0.145619	-0.138138	-0.168892	1.33536	0.00782467	-0.255006	1.61883	0.174947	-0.477331	1.20356	-0.0825933	-0.324963	1.64172	0.276317	-0.791576	1.09405	-0.12625	-0.553365	1.15552	-0.0945493	-0.101617	0.115026	-0.068009	-0.342816	0.519763	-0.0577798	-0.142893	1.00536	0.0923904	-0.296161	1.46282	0.0547715	-0.348924	0.843776	9.58164e-05	-0.267296	0.419603	-0.110274	-0.325638	0.0676532	-0.124177	-0.422922	1.28092	-0.0543668	-0.720918	1.12936	-0.0416043	-0.702934	1.08552	-0.0991265	-0.319519	1.23177	0.251418	-0.108583	1.22714	0.109322
993	9.91119	-0.132926	1.45859	0.141014	-0.276478	1.38667	0.232965	-0.108481	0.0931294	0.264664	-0.184422	0.991141	0.325427	-0.142545	1.59392	0.268085	-0.193701	1.11141	0.443045	-0.225323	1.62735	0.364673	-0.421034	1.2805	0.287283	-0.320858	1.13418	0.358705	-0.0648845	0.0625353	0.185831	-0.169302	0.476916	0.306768	-0.112709	1.00849	0.150017	-0.0971047	1.42796	0.326535	-0.168188	0.66277	0.334665	-0.112847	0.240604	0.296979	-0.290978	0.0623631	0.273076	-0.119269	1.26751	0.423507	-0.333771	1.22056	0.286777	-0.386134	1.18784	0.322669	-0.180208	0.145674	-0.140642	-0.168584	1.33574	0.00882162	-0.258875	1.61838	0.17785	-0.469163	1.19981	-0.087862	-0.32478	1.64077	0.282233	-0.779107	1.08162	-0.139639	-0.543567	1.14982	-0.101891	-0.10107	0.115468	-0.073302	-0.343742	0.520041	-0.0578689	-0.143083	1.00554	0.092522	-0.296395	1.46323	0.0552159	-0.349256	0.844105	-0.000247903	-0.269145	0.420138	-0.111423	-0.327177	0.0688697	-0.119866	-0.417368	1.27834	-0.0579954	-0.711577	1.1188	-0.0532637	-0.690853	1.07577	-0.110858	-0.320049	1.23165	0.252029	-0.108922	1.22744	0.110504
994	9.92118	-0.134064	1.45914	0.141635	-0.277381	1.38681	0.233705	-0.108473	0.0931396	0.264739	-0.184688	0.991149	0.325334	-0.142297	1.59448	0.265555	-0.195051	1.11155	0.443127	-0.220433	1.62707	0.366183	-0.421952	1.28043	0.286384	-0.321956	1.13425	0.358362	-0.0648963	0.0625886	0.186014	-0.169439	0.476981	0.30667	-0.112916	1.00848	0.149882	-0.0979272	1.42814	0.326955	-0.168451	0.662795	0.334523	-0.112926	0.240673	0.297015	-0.29099	0.0623466	0.273079	-0.120379	1.26765	0.423919	-0.334324	1.2209	0.286644	-0.387113	1.18787	0.32208	-0.182388	0.145469	-0.143209	-0.168676	1.33612	0.00970638	-0.263045	1.61792	0.180925	-0.460749	1.19596	-0.0928377	-0.323963	1.63959	0.288542	-0.765627	1.06833	-0.152711	-0.533251	1.14377	-0.10884	-0.100744	0.115686	-0.0788537	-0.344447	0.520267	-0.0579174	-0.143446	1.00579	0.0923752	-0.296964	1.46367	0.0555981	-0.349775	0.844367	-0.000429529	-0.271059	0.420436	-0.112583	-0.328703	0.0699366	-0.115278	-0.411806	1.27571	-0.0612096	-0.701449	1.1076	-0.0646475	-0.678074	1.06544	-0.121912	-0.320596	1.23153	0.252637	-0.109475	1.22778	0.111376
